<svg xmlns="http://www.w3.org/2000/svg" width="767.5" height="559.854" viewBox="0 0 767.5 559.854">
  <g id="book" transform="translate(-30.6 -16.4)">
    <path id="Path_53" data-name="Path 53" d="M367.038,501.045S175.163,453.076,30.6,464.247V29.9l55.2,4.6V423.506S275.7,466.875,367.038,501.045Z" transform="translate(0 75.209)" fill="#e39626"/>
    <path id="Path_54" data-name="Path 54" d="M45.2,23.7V456.076s162.305,18.4,260.871,75.567c0,0-38.769-47.969-178.733-100.537V37.5Z" transform="translate(81.337 40.669)" fill="#e39626"/>
    <path id="Path_55" data-name="Path 55" d="M65.1,16.7l1.971,436.975s105.137,34.169,137.335,98.566l6.571-412.005S165.637,53.5,65.1,16.7Z" transform="translate(192.201 1.671)" fill="#c16228"/>
    <path id="Path_56" data-name="Path 56" d="M96.2,500.745s191.875-47.969,336.438-36.8V29.6l-55.2,4.6V423.206S187.538,466.575,96.2,500.745Z" transform="translate(365.461 73.538)" fill="#e39626"/>
    <path id="Path_57" data-name="Path 57" d="M353.971,23.3V455.676S191.666,474.075,93.1,531.243c0,0,38.769-47.969,178.733-100.537V37.1Z" transform="translate(348.191 38.44)" fill="#e39626"/>
    <path id="Path_58" data-name="Path 58" d="M236.578,16.4l-1.971,436.975S129.469,487.545,97.271,551.941L90.7,139.936S136.04,52.541,236.578,16.4Z" transform="translate(334.82 0)" fill="#c16228"/>
  </g>
</svg>
