<svg xmlns="http://www.w3.org/2000/svg" width="32" height="24.011" viewBox="0 0 32 24.011">
  <g id="email-solid" transform="translate(-1.93 -5.989)">
    <path id="Path_9" data-name="Path 9" d="M32.33,6a2,2,0,0,0-.41,0h-28a2,2,0,0,0-.53.08L17.84,20.47Z"/>
    <path id="Path_10" data-name="Path 10" d="M33.81,7.39,19.25,21.89a2,2,0,0,1-2.82,0L2,7.5a2,2,0,0,0-.07.5V28a2,2,0,0,0,2,2h28a2,2,0,0,0,2-2V8a2,2,0,0,0-.12-.61ZM5.3,28H3.91V26.57l7.27-7.21,1.41,1.41Zm26.61,0h-1.4l-7.29-7.23,1.41-1.41,7.27,7.21Z"/>
  </g>
</svg>
