<svg xmlns="http://www.w3.org/2000/svg" width="158.546" height="158.544" viewBox="0 0 158.546 158.544">
  <g id="engineering" transform="translate(-2 -2)">
    <path id="Path_21" data-name="Path 21" d="M92.28,79.606a39.479,39.479,0,0,1-2.037,7.621l8.273,7.5a49.881,49.881,0,0,1-4.006,6.992L83.887,98.291a39.748,39.748,0,0,1-5.6,5.6l3.425,10.623a50.146,50.146,0,0,1-6.992,4.006l-7.5-8.273A39.429,39.429,0,0,1,59.6,112.28l-2.36,10.929c-1.334.106-2.674.2-4.038.2s-2.7-.1-4.04-.2l-2.36-10.929a39.48,39.48,0,0,1-7.621-2.037l-7.5,8.273A49.883,49.883,0,0,1,24.7,114.51l3.425-10.623a39.87,39.87,0,0,1-5.6-5.6L11.9,101.715A50.145,50.145,0,0,1,7.9,94.724l8.273-7.5a39.429,39.429,0,0,1-2.037-7.621L3.2,77.246C3.1,75.909,3,74.57,3,73.206s.1-2.7.2-4.04l10.929-2.36a39.48,39.48,0,0,1,2.037-7.621L7.9,51.689A49.881,49.881,0,0,1,11.9,44.7l10.623,3.425a39.749,39.749,0,0,1,5.6-5.6L24.7,31.9A50.146,50.146,0,0,1,31.692,27.9l7.5,8.273a39.429,39.429,0,0,1,7.621-2.037L49.169,23.2c1.334-.106,2.674-.2,4.038-.2s2.7.1,4.04.2l2.36,10.929a39.48,39.48,0,0,1,7.621,2.037l7.5-8.273A49.881,49.881,0,0,1,81.715,31.9L78.291,42.525a39.749,39.749,0,0,1,5.6,5.6L94.51,44.7a50.145,50.145,0,0,1,4.006,6.992l-8.273,7.5a39.428,39.428,0,0,1,2.037,7.621l10.929,2.36c.106,1.334.2,2.674.2,4.038s-.1,2.7-.2,4.04ZM53.206,46.782A26.424,26.424,0,1,0,79.631,73.206,26.424,26.424,0,0,0,53.206,46.782Z" transform="translate(1.642 34.49)" fill="#fee32c"/>
    <path id="Path_22" data-name="Path 22" d="M81.305,38.158a21.178,21.178,0,0,1-1.615,3.911l4.172,8a29.2,29.2,0,0,1-4.8,4.8l-8-4.172A20.82,20.82,0,0,1,67.16,52.3l-2.706,8.614a28.714,28.714,0,0,1-3.388.217,29.209,29.209,0,0,1-3.385-.214l-2.706-8.614a21,21,0,0,1-3.911-1.615l-8,4.172a29.2,29.2,0,0,1-4.8-4.8l4.172-8a20.819,20.819,0,0,1-1.615-3.911l-8.614-2.706A28.715,28.715,0,0,1,32,32.067a29.209,29.209,0,0,1,.214-3.385l8.614-2.706a21,21,0,0,1,1.615-3.911l-4.172-8a29.2,29.2,0,0,1,4.8-4.8l8,4.172a20.82,20.82,0,0,1,3.911-1.615l2.706-8.614A28.715,28.715,0,0,1,61.067,3a29.208,29.208,0,0,1,3.385.214l2.706,8.614a21,21,0,0,1,3.911,1.615l8-4.172a29.2,29.2,0,0,1,4.8,4.8l-4.172,8A20.819,20.819,0,0,1,81.3,25.973l8.614,2.706a28.717,28.717,0,0,1,.217,3.388,29.21,29.21,0,0,1-.214,3.385ZM61.067,21.5a10.57,10.57,0,1,0,10.57,10.57A10.57,10.57,0,0,0,61.067,21.5Z" transform="translate(49.273 1.642)" fill="#e89d43"/>
    <path id="Path_23" data-name="Path 23" d="M84.589,56.726a18.391,18.391,0,0,1-1.715,4.154L85.5,66.413a23.968,23.968,0,0,1-4.09,4.09L75.88,67.874a18.342,18.342,0,0,1-4.154,1.715L69.67,75.371a21.718,21.718,0,0,1-5.776,0l-2.056-5.782a18.392,18.392,0,0,1-4.154-1.715L52.151,70.5a23.967,23.967,0,0,1-4.09-4.09l2.629-5.533a18.371,18.371,0,0,1-1.715-4.151l-5.782-2.056a21.738,21.738,0,0,1,0-5.779l5.782-2.056a18.321,18.321,0,0,1,1.715-4.151L48.06,37.153a23.967,23.967,0,0,1,4.09-4.09l5.533,2.629a18.341,18.341,0,0,1,4.154-1.715L63.894,28.2a23.15,23.15,0,0,1,2.888-.2,23.666,23.666,0,0,1,2.888.193l2.056,5.782a18.391,18.391,0,0,1,4.154,1.715l5.533-2.629a23.968,23.968,0,0,1,4.09,4.09l-2.629,5.533a18.341,18.341,0,0,1,1.715,4.154l5.782,2.056a21.718,21.718,0,0,1,0,5.776ZM66.782,43.855a7.927,7.927,0,1,0,7.927,7.927A7.927,7.927,0,0,0,66.782,43.855Z" transform="translate(67.34 42.702)" fill="#bc7c10"/>
    <g id="Group_21" data-name="Group 21" transform="translate(2 2.001)">
      <path id="Path_24" data-name="Path 24" d="M2.211,79.073a2.64,2.64,0,0,0,2.077,2.373L13.5,83.433a41.745,41.745,0,0,0,1.237,4.63L7.763,94.378a2.641,2.641,0,0,0-.61,3.094,52.839,52.839,0,0,0,4.217,7.359,2.642,2.642,0,0,0,2.983,1.012l8.95-2.883a42.34,42.34,0,0,0,3.409,3.409l-2.883,8.95a2.642,2.642,0,0,0,1.012,2.983,52.839,52.839,0,0,0,7.359,4.217,2.645,2.645,0,0,0,3.094-.61l6.315-6.971a42.538,42.538,0,0,0,4.632,1.237l1.987,9.209a2.646,2.646,0,0,0,2.37,2.077c1.406.111,2.814.211,4.249.211s2.843-.1,4.249-.211a2.64,2.64,0,0,0,2.373-2.077l1.987-9.209a41.793,41.793,0,0,0,4.632-1.237l6.315,6.971a2.639,2.639,0,0,0,3.094.61,53.1,53.1,0,0,0,7.359-4.217,2.642,2.642,0,0,0,1.012-2.983l-2.883-8.95a42.738,42.738,0,0,0,3.409-3.406l8.95,2.883a2.639,2.639,0,0,0,2.983-1.012,52.84,52.84,0,0,0,4.217-7.359,2.641,2.641,0,0,0-.61-3.094l-6.971-6.315A42.538,42.538,0,0,0,96.2,83.433l9.209-1.987a2.646,2.646,0,0,0,2.077-2.37c.108-1.408.209-2.817.209-4.252s-.1-2.843-.211-4.249a2.64,2.64,0,0,0-2.077-2.373L96.2,66.215a41.791,41.791,0,0,0-1.237-4.632l6.971-6.315a2.641,2.641,0,0,0,.61-3.094,53.105,53.105,0,0,0-4.217-7.359A2.639,2.639,0,0,0,95.344,43.8l-8.95,2.883a42.337,42.337,0,0,0-3.409-3.409l2.883-8.95a2.642,2.642,0,0,0-1.012-2.983A52.839,52.839,0,0,0,77.5,27.125a2.637,2.637,0,0,0-3.094.61l-6.315,6.971a42.54,42.54,0,0,0-4.632-1.237l-1.987-9.209a2.646,2.646,0,0,0-2.37-2.077,53.705,53.705,0,0,0-8.5,0,2.64,2.64,0,0,0-2.373,2.077L46.237,33.47a41.745,41.745,0,0,0-4.63,1.237l-6.315-6.971a2.641,2.641,0,0,0-3.094-.61,52.838,52.838,0,0,0-7.359,4.217,2.642,2.642,0,0,0-1.012,2.983l2.883,8.95A42.338,42.338,0,0,0,23.3,46.684L14.353,43.8a2.636,2.636,0,0,0-2.983,1.012,52.838,52.838,0,0,0-4.217,7.359,2.641,2.641,0,0,0,.61,3.094l6.971,6.315A42.54,42.54,0,0,0,13.5,66.215L4.288,68.2a2.646,2.646,0,0,0-2.077,2.37C2.1,71.98,2,73.389,2,74.824s.1,2.843.211,4.249ZM7.34,72.95l8.99-1.942a2.643,2.643,0,0,0,2.051-2.159,36.838,36.838,0,0,1,1.9-7.111,2.639,2.639,0,0,0-.7-2.893l-6.788-6.152c.592-1.134,1.21-2.22,1.85-3.248l8.709,2.806a2.652,2.652,0,0,0,2.856-.84,37.154,37.154,0,0,1,5.227-5.227,2.639,2.639,0,0,0,.84-2.856l-2.806-8.709q1.542-.963,3.248-1.85L38.87,39.56a2.646,2.646,0,0,0,2.9.7,36.66,36.66,0,0,1,7.108-1.9,2.643,2.643,0,0,0,2.159-2.051l1.94-8.99a34.8,34.8,0,0,1,3.75,0l1.942,8.99a2.643,2.643,0,0,0,2.159,2.051,36.837,36.837,0,0,1,7.111,1.9,2.638,2.638,0,0,0,2.893-.7l6.152-6.788c1.134.592,2.22,1.21,3.248,1.85L77.42,43.331a2.645,2.645,0,0,0,.84,2.856,37.154,37.154,0,0,1,5.227,5.227,2.633,2.633,0,0,0,2.856.84l8.709-2.806q.963,1.542,1.85,3.245l-6.791,6.152a2.643,2.643,0,0,0-.7,2.9,36.66,36.66,0,0,1,1.9,7.108,2.643,2.643,0,0,0,2.051,2.159l8.99,1.94c.034.621.058,1.247.058,1.876s-.021,1.255-.055,1.873l-8.99,1.942A2.643,2.643,0,0,0,91.317,80.8a36.837,36.837,0,0,1-1.9,7.111,2.639,2.639,0,0,0,.7,2.893L96.9,96.954c-.592,1.134-1.21,2.22-1.85,3.248L86.344,97.4a2.63,2.63,0,0,0-2.856.84,37.3,37.3,0,0,1-5.227,5.227,2.641,2.641,0,0,0-.84,2.854l2.806,8.709q-1.542.963-3.245,1.85l-6.152-6.791a2.652,2.652,0,0,0-2.9-.7,36.659,36.659,0,0,1-7.108,1.9,2.643,2.643,0,0,0-2.159,2.051l-1.94,8.99a34.8,34.8,0,0,1-3.75,0l-1.942-8.99a2.643,2.643,0,0,0-2.159-2.051,36.837,36.837,0,0,1-7.111-1.9,2.636,2.636,0,0,0-2.893.7l-6.152,6.788c-1.134-.592-2.22-1.21-3.248-1.85l2.806-8.709a2.645,2.645,0,0,0-.84-2.856,37.154,37.154,0,0,1-5.227-5.227,2.639,2.639,0,0,0-2.856-.84L14.647,100.2q-.963-1.542-1.85-3.248L19.588,90.8a2.643,2.643,0,0,0,.7-2.9,36.66,36.66,0,0,1-1.9-7.108,2.643,2.643,0,0,0-2.051-2.159L7.34,76.7c-.032-.621-.055-1.247-.055-1.876S7.306,73.568,7.34,72.95Z" transform="translate(-2 30.872)" fill="#0d1030"/>
      <path id="Path_25" data-name="Path 25" d="M92.355,39.614A2.64,2.64,0,0,0,94.186,37.4a31.079,31.079,0,0,0,.233-3.689,31.614,31.614,0,0,0-.23-3.689A2.64,2.64,0,0,0,92.357,27.8L85.03,25.5q-.329-.9-.729-1.765l3.551-6.8a2.648,2.648,0,0,0-.27-2.862A31.993,31.993,0,0,0,82.353,8.84a2.649,2.649,0,0,0-2.862-.272l-6.81,3.551q-.864-.4-1.765-.727l-2.3-7.327A2.64,2.64,0,0,0,66.4,2.234a29.232,29.232,0,0,0-7.38,0A2.64,2.64,0,0,0,56.8,4.066l-2.3,7.327q-.9.329-1.765.729l-6.8-3.551a2.654,2.654,0,0,0-2.862.27,31.993,31.993,0,0,0-5.229,5.229,2.643,2.643,0,0,0-.272,2.862l3.549,6.8q-.4.864-.727,1.765l-7.327,2.3A2.64,2.64,0,0,0,31.23,30.02a29.71,29.71,0,0,0,0,7.378,2.64,2.64,0,0,0,1.831,2.217l7.327,2.3q.329.9.729,1.765l-3.551,6.8a2.648,2.648,0,0,0,.27,2.862,31.993,31.993,0,0,0,5.229,5.229,2.648,2.648,0,0,0,2.862.272l6.8-3.549q.864.4,1.765.727l2.3,7.327a2.64,2.64,0,0,0,2.217,1.831,31.232,31.232,0,0,0,3.694.233,31.614,31.614,0,0,0,3.689-.23,2.64,2.64,0,0,0,2.217-1.831l2.3-7.327q.9-.329,1.765-.729l6.8,3.551a2.643,2.643,0,0,0,2.862-.27,31.994,31.994,0,0,0,5.229-5.229,2.643,2.643,0,0,0,.272-2.862l-3.551-6.8q.4-.864.729-1.765Zm-10.2-2.336a2.65,2.65,0,0,0-1.739,1.763,18.612,18.612,0,0,1-1.411,3.419,2.635,2.635,0,0,0-.016,2.473l3.353,6.426a26.968,26.968,0,0,1-1.982,1.982l-6.426-3.353A2.643,2.643,0,0,0,71.461,50a18.612,18.612,0,0,1-3.419,1.411,2.65,2.65,0,0,0-1.763,1.739L64.1,60.088a22.26,22.26,0,0,1-2.785,0l-2.177-6.934a2.65,2.65,0,0,0-1.763-1.739A18.361,18.361,0,0,1,53.96,50a2.641,2.641,0,0,0-2.476-.016l-6.426,3.353a26.968,26.968,0,0,1-1.982-1.982l3.353-6.426a2.643,2.643,0,0,0-.016-2.473A18.612,18.612,0,0,1,45,39.041a2.65,2.65,0,0,0-1.739-1.763L36.33,35.1c-.032-.484-.045-.946-.045-1.393s.013-.909.045-1.393l6.934-2.177A2.65,2.65,0,0,0,45,28.376a18.362,18.362,0,0,1,1.411-3.417,2.641,2.641,0,0,0,.016-2.476l-3.353-6.426a26.967,26.967,0,0,1,1.982-1.982l6.426,3.353a2.65,2.65,0,0,0,2.473-.016A18.612,18.612,0,0,1,57.377,16a2.65,2.65,0,0,0,1.763-1.739l2.177-6.934a22.26,22.26,0,0,1,2.785,0l2.177,6.934A2.65,2.65,0,0,0,68.042,16a18.361,18.361,0,0,1,3.417,1.411,2.641,2.641,0,0,0,2.476.016l6.426-3.353a26.97,26.97,0,0,1,1.982,1.982l-3.353,6.426a2.643,2.643,0,0,0,.016,2.473,18.612,18.612,0,0,1,1.411,3.419,2.65,2.65,0,0,0,1.739,1.763l6.934,2.177c.032.484.045.946.045,1.393s-.013.909-.045,1.393Z" transform="translate(45.631 -2.001)" fill="#0d1030"/>
      <path id="Path_26" data-name="Path 26" d="M92.9,48.043l-4.54-1.612a21.414,21.414,0,0,0-.891-2.159l2.064-4.347a2.631,2.631,0,0,0-.307-2.759,26.593,26.593,0,0,0-4.542-4.545,2.643,2.643,0,0,0-2.761-.307l-4.349,2.064a21.1,21.1,0,0,0-2.156-.888L73.8,28.952a2.648,2.648,0,0,0-2.172-1.739,24.35,24.35,0,0,0-6.413,0,2.64,2.64,0,0,0-2.172,1.739l-1.612,4.54a21.417,21.417,0,0,0-2.159.89l-4.347-2.064a2.644,2.644,0,0,0-2.759.307,26.594,26.594,0,0,0-4.545,4.542,2.647,2.647,0,0,0-.307,2.761l2.064,4.349a21.1,21.1,0,0,0-.888,2.156l-4.54,1.615a2.648,2.648,0,0,0-1.739,2.172,25.889,25.889,0,0,0-.214,3.2,26.487,26.487,0,0,0,.211,3.205A2.64,2.64,0,0,0,43.95,58.8l4.54,1.612a21.416,21.416,0,0,0,.891,2.159l-2.064,4.347a2.631,2.631,0,0,0,.307,2.759,26.594,26.594,0,0,0,4.542,4.545,2.647,2.647,0,0,0,2.761.307l4.349-2.064a21.107,21.107,0,0,0,2.156.888l1.615,4.54a2.648,2.648,0,0,0,2.172,1.739,25.522,25.522,0,0,0,3.205.217,26.486,26.486,0,0,0,3.205-.211A2.64,2.64,0,0,0,73.8,77.9l1.612-4.54a21.415,21.415,0,0,0,2.159-.891l4.347,2.064a2.625,2.625,0,0,0,2.759-.307,26.593,26.593,0,0,0,4.545-4.542,2.647,2.647,0,0,0,.307-2.761l-2.064-4.349a21.1,21.1,0,0,0,.888-2.156l4.54-1.615a2.648,2.648,0,0,0,1.739-2.172,25.521,25.521,0,0,0,.217-3.205,26.485,26.485,0,0,0-.211-3.205A2.643,2.643,0,0,0,92.9,48.043Zm-3.361,6.344-4.188,1.488a2.642,2.642,0,0,0-1.662,1.784,15.724,15.724,0,0,1-1.467,3.559,2.649,2.649,0,0,0-.087,2.434l1.9,4q-.658.721-1.377,1.377l-4-1.9a2.649,2.649,0,0,0-2.434.087,15.732,15.732,0,0,1-3.557,1.467,2.652,2.652,0,0,0-1.786,1.662l-1.488,4.188a18.064,18.064,0,0,1-1.929,0l-1.488-4.188a2.642,2.642,0,0,0-1.784-1.662,15.723,15.723,0,0,1-3.559-1.467,2.664,2.664,0,0,0-2.434-.087l-4,1.9q-.721-.658-1.377-1.377l1.9-4a2.641,2.641,0,0,0-.087-2.434,15.733,15.733,0,0,1-1.467-3.557A2.652,2.652,0,0,0,51.5,55.875l-4.188-1.488c-.021-.32-.032-.639-.032-.964s.011-.647.026-.964l4.188-1.49a2.633,2.633,0,0,0,1.659-1.784,15.8,15.8,0,0,1,1.469-3.559,2.649,2.649,0,0,0,.087-2.434l-1.9-4q.658-.721,1.377-1.377l4,1.9a2.633,2.633,0,0,0,2.434-.087,15.732,15.732,0,0,1,3.557-1.467A2.652,2.652,0,0,0,65.969,36.5l1.488-4.188a18.064,18.064,0,0,1,1.929,0L70.874,36.5a2.642,2.642,0,0,0,1.784,1.662,15.724,15.724,0,0,1,3.559,1.467,2.633,2.633,0,0,0,2.434.087l4-1.9q.721.658,1.377,1.377l-1.9,4a2.641,2.641,0,0,0,.087,2.434,15.732,15.732,0,0,1,1.467,3.557,2.652,2.652,0,0,0,1.662,1.786l4.188,1.488c.021.322.032.642.032.967s-.011.645-.026.964Z" transform="translate(63.697 39.061)" fill="#0d1030"/>
      <path id="Path_27" data-name="Path 27" d="M40.067,89.133A29.067,29.067,0,1,0,11,60.067,29.1,29.1,0,0,0,40.067,89.133Zm0-52.849A23.782,23.782,0,1,1,16.285,60.067,23.811,23.811,0,0,1,40.067,36.285Z" transform="translate(12.782 45.629)" fill="#0d1030"/>
      <path id="Path_28" data-name="Path 28" d="M2.022,45.177l4.059,3.385A63.289,63.289,0,0,1,54.813,25.731c1.345,0,2.687.077,4.03.161l-3.255,3.255,3.736,3.736,7.927-7.927a2.639,2.639,0,0,0,0-3.736l-7.927-7.927-3.736,3.736,3.591,3.591c-1.453-.092-2.909-.174-4.365-.174A68.564,68.564,0,0,0,2.022,45.177Z" transform="translate(-1.964 16.547)" fill="#0d1030"/>
      <path id="Path_29" data-name="Path 29" d="M51.212,9A13.212,13.212,0,1,0,64.424,22.212,13.227,13.227,0,0,0,51.212,9Zm0,21.139a7.927,7.927,0,1,1,7.927-7.927A7.937,7.937,0,0,1,51.212,30.139Z" transform="translate(57.128 9.496)" fill="#0d1030"/>
      <path id="Path_30" data-name="Path 30" d="M58.57,33a10.57,10.57,0,1,0,10.57,10.57A10.58,10.58,0,0,0,58.57,33Zm0,15.855a5.285,5.285,0,1,1,5.285-5.285A5.29,5.29,0,0,1,58.57,48.855Z" transform="translate(73.552 48.914)" fill="#0d1030"/>
      <path id="Path_31" data-name="Path 31" d="M72.984,6.7,59.772,4.053a2.637,2.637,0,0,0-3.11,2.072L54.019,19.337,59.2,20.375l1.424-7.113a39.649,39.649,0,0,1,3.913,17.163A39.213,39.213,0,0,1,55.845,55.2L59.97,58.5a44.957,44.957,0,0,0,5.214-47.979l6.765,1.353Z" transform="translate(83.438 1.283)" fill="#0d1030"/>
    </g>
  </g>
</svg>
