<svg xmlns="http://www.w3.org/2000/svg" width="142.866" height="142.868" viewBox="0 0 142.866 142.868">
  <g id="online-learning" transform="translate(-1 -1)">
    <g id="Group_24" data-name="Group 24" transform="translate(72.434 10.217)">
      <path id="Path_49" data-name="Path 49" d="M55.043,5A29.788,29.788,0,0,0,32.576,15.257a16.093,16.093,0,0,1,6.337,12.787A6.921,6.921,0,0,1,32,34.956v6.427A9.218,9.218,0,0,0,33.549,46.5l2.219,3.33a4.934,4.934,0,0,1-1.327,6.842A29.946,29.946,0,1,0,55.043,5Z" transform="translate(-32 -5)" fill="#fee32c"/>
    </g>
    <g id="Group_25" data-name="Group 25" transform="translate(21.739 17.13)">
      <path id="Path_50" data-name="Path 50" d="M51.478,8H41.3L10,39.307v.954A27.15,27.15,0,0,0,26.107,65.048l6.936,3.083V56.391l-2.334-.779a6.7,6.7,0,0,1,2.118-13.047h.217V37.956a9.218,9.218,0,0,1,9.217-9.217H56.086a4.6,4.6,0,0,1,3.97,2.3H60.7a6.921,6.921,0,0,0,6.913-6.913A16.148,16.148,0,0,0,51.478,8Z" transform="translate(-10 -8)" fill="#fee32c"/>
    </g>
    <g id="Group_26" data-name="Group 26" transform="translate(1 1)">
      <path id="Path_51" data-name="Path 51" d="M12.522,41.085l3.832-3.832,6.913,16.13L58.034,18.616,41.9,11.7l3.832-3.832L41.127,3.262A8.054,8.054,0,0,0,30,3.262l-8.263,8.263L17.886,7.672A7.192,7.192,0,0,0,5.609,12.758V57.033C2.456,59.239,1,65.58,1,67.783a6.913,6.913,0,0,0,13.826,0c0-2.2-1.456-8.544-4.609-10.75V38.781Zm12.3,4.228L19.863,33.746,38.395,15.214l11.568,4.957ZM33.261,6.52a3.26,3.26,0,0,1,4.609,0l1.35,1.35L37.344,9.746,14.4,32.693l-1.876,1.876-1.35-1.35a3.26,3.26,0,0,1,0-4.609ZM12.8,10.175a2.573,2.573,0,0,1,1.827.756l3.853,3.853-8.263,8.263V12.758A2.586,2.586,0,0,1,12.8,10.175ZM7.913,70.087a2.308,2.308,0,0,1-2.3-2.3,14.286,14.286,0,0,1,2.3-6.719,14.277,14.277,0,0,1,2.3,6.719A2.308,2.308,0,0,1,7.913,70.087Z" transform="translate(-1 -0.958)"/>
      <path id="Path_52" data-name="Path 52" d="M128.062,132.939a9.079,9.079,0,0,0-2.15-4.367v-37.7a9.227,9.227,0,0,0-9.217-9.217h-4.609v46.957a9.13,9.13,0,0,0-1.044,1.433H88.826a12.516,12.516,0,0,0-11.015-10.171L59,117.891A42.623,42.623,0,0,0,49.869,93.53V76.81a11.541,11.541,0,0,0,7.189-4.781A39.169,39.169,0,1,0,48.146,17.16a16.02,16.02,0,0,1,5.046,1A34.613,34.613,0,0,1,68.036,7.715a38.359,38.359,0,0,0-5.871,11.72H55.83a16.258,16.258,0,0,1,4.952,4.609H94.018A65.358,65.358,0,0,1,95.9,37.869H57.289a6.874,6.874,0,0,0-5.116-2.3H38.348A11.535,11.535,0,0,0,26.826,47.086v2.549a9,9,0,0,0-.76,17.294l.76.253V80.061A22.488,22.488,0,0,0,13,100.835v43.033H59.086v-9.217H72.912a9.227,9.227,0,0,0,9.217,9.217H119a9.225,9.225,0,0,0,9.063-10.929ZM121.3,90.869v34.876c-.164-.041-.318-.1-.484-.134a9.328,9.328,0,0,0-4.125.138V86.26a4.613,4.613,0,0,1,4.609,4.609ZM79.825,74.738c-4.947,0-9.71-5.229-12.8-13.826H92.605c-2.977,8.326-7.637,13.826-12.78,13.826ZM62.474,61.855a37.343,37.343,0,0,0,5.6,10.821,34.518,34.518,0,0,1-9.2-5.051,11.506,11.506,0,0,0,.212-2.1v-.88l.567-.283a7.3,7.3,0,0,0,2.82-2.5Zm29.1,10.784a38.377,38.377,0,0,0,5.913-11.727h9.925A34.655,34.655,0,0,1,91.573,72.639Zm22.7-30.161a34.283,34.283,0,0,1-3.9,13.826h-11.6A70.26,70.26,0,0,0,100.5,42.478ZM107.41,19.435H97.486A38.377,38.377,0,0,0,91.573,7.708,34.655,34.655,0,0,1,107.41,19.435Zm-40.381,0c3.085-8.6,7.849-13.826,12.8-13.826,5.143,0,9.8,5.5,12.78,13.826Zm31.742,4.609h11.6a34.284,34.284,0,0,1,3.9,13.826H100.5a70.088,70.088,0,0,0-1.733-13.826ZM95.9,42.478A65.358,65.358,0,0,1,94.02,56.3h-30.5a7.278,7.278,0,0,0-1.051-2.539l-2.219-3.33A6.888,6.888,0,0,1,59.086,46.6V42.478ZM24.522,58.391A4.449,4.449,0,0,1,29.13,54h2.3V47.086a6.921,6.921,0,0,1,6.913-6.913H52.173a2.308,2.308,0,0,1,2.3,2.3V46.6a11.491,11.491,0,0,0,1.936,6.39l2.219,3.327a2.7,2.7,0,0,1-1.039,3.917l-3.115,1.558v3.728a6.921,6.921,0,0,1-6.913,6.913H36.043v4.609H45.26V88.562a42.664,42.664,0,0,0-13.826-8.5V63.86l-3.91-1.3a4.381,4.381,0,0,1-3-4.164Zm4.62,25.7a38.065,38.065,0,0,1,25.232,33.311l-4.719-.5a11.487,11.487,0,0,1-8.381-5.067l-4.083-6.125a16.02,16.02,0,0,0-4.473-4.473l-4.611-3.074L25.552,102l4.611,3.074a11.439,11.439,0,0,1,3.2,3.2l4.083,6.125a16.1,16.1,0,0,0,11.734,7.1L66,123.263v6.779H47.03a25.229,25.229,0,0,1-19.794-9.512L17.609,108.5v-7.662A17.891,17.891,0,0,1,29.142,84.094Zm25.336,55.165H17.609V115.873l6.028,7.537a29.816,29.816,0,0,0,23.393,11.24h7.448Zm16.13-9.217v-6.293l6.722.707a7.888,7.888,0,0,1,6.731,5.586H70.608Zm51.933,7.558A4.6,4.6,0,0,1,119,139.259H82.13a4.613,4.613,0,0,1-4.609-4.609h36.613l.546-1.532a4.6,4.6,0,1,1,7.86,4.482Z" transform="translate(14.652 -1)"/>
    </g>
  </g>
</svg>
