<svg id="Page-1" xmlns="http://www.w3.org/2000/svg" width="167.308" height="145" viewBox="0 0 167.308 145">
  <g id="_008---Certificate" data-name="008---Certificate">
    <g id="Colour" transform="translate(2.788 2.788)">
      <path id="Shape" d="M119.9,122.693h30.673a11.154,11.154,0,0,0,11.154-11.154V11.154A11.154,11.154,0,0,0,150.577,0H11.154A11.154,11.154,0,0,0,0,11.154V111.539a11.154,11.154,0,0,0,11.154,11.154H97.6" fill="#fee32c"/>
      <path id="Shape-2" data-name="Shape" d="M59.365,0H51A11.154,11.154,0,0,1,62.154,11.154V111.539A11.154,11.154,0,0,1,51,122.693h8.365a11.154,11.154,0,0,0,11.154-11.154V11.154A11.154,11.154,0,0,0,59.365,0Z" transform="translate(91.212)" fill="#fec108"/>
      <path id="Shape-3" data-name="Shape" d="M92.443,86.077H17.154A11.154,11.154,0,0,1,6,74.923V19.154A11.154,11.154,0,0,1,17.154,8H92.443Z" transform="translate(10.731 14.308)" fill="#f5f5f5"/>
      <path id="Rectangle-path" d="M34,8h8.365V86.077H34Z" transform="translate(60.808 14.308)" fill="#cfd8dc"/>
      <path id="Shape-4" data-name="Shape" d="M95.78,40.362a4.261,4.261,0,0,1-1.338,6.776,4.333,4.333,0,0,0-2.51,3.9,3.865,3.865,0,0,0,.279,1.478A4.071,4.071,0,0,1,92.49,54a4.291,4.291,0,0,1-4.127,4.266,4.258,4.258,0,0,0-4.1,4.1,4.13,4.13,0,0,1-1.283,2.9A4.244,4.244,0,0,1,80,66.49a4.071,4.071,0,0,1-1.478-.279,3.865,3.865,0,0,0-1.478-.279,4.333,4.333,0,0,0-3.9,2.51,4.261,4.261,0,0,1-6.776,1.338,4.225,4.225,0,0,0-5.688-.084c-.028.028-.084.056-.112.084a4.261,4.261,0,0,1-6.776-1.338,4.333,4.333,0,0,0-3.9-2.51,3.865,3.865,0,0,0-1.478.279,4.071,4.071,0,0,1-1.478.279,4.244,4.244,0,0,1-2.984-1.227,4.13,4.13,0,0,1-1.283-2.9,4.258,4.258,0,0,0-4.1-4.1A4.291,4.291,0,0,1,34.434,54a4.071,4.071,0,0,1,.279-1.478,3.865,3.865,0,0,0,.279-1.478,4.333,4.333,0,0,0-2.51-3.9,4.261,4.261,0,0,1-1.338-6.776,4.25,4.25,0,0,0,0-5.8,4.261,4.261,0,0,1,1.338-6.776,4.333,4.333,0,0,0,2.51-3.9,3.865,3.865,0,0,0-.279-1.478,4.071,4.071,0,0,1-.279-1.478,4.291,4.291,0,0,1,4.127-4.266,4.258,4.258,0,0,0,4.1-4.1,4.291,4.291,0,0,1,4.266-4.127,4.071,4.071,0,0,1,1.478.279,3.865,3.865,0,0,0,1.478.279,4.333,4.333,0,0,0,3.9-2.51,4.261,4.261,0,0,1,6.776-1.338,4.25,4.25,0,0,0,5.8,0,4.266,4.266,0,0,1,6.776,1.338,4.333,4.333,0,0,0,3.9,2.51,3.865,3.865,0,0,0,1.478-.279A4.071,4.071,0,0,1,80,8.434a4.291,4.291,0,0,1,4.266,4.127,4.258,4.258,0,0,0,4.1,4.1,4.291,4.291,0,0,1,4.127,4.266,4.072,4.072,0,0,1-.279,1.478,3.864,3.864,0,0,0-.279,1.478,4.333,4.333,0,0,0,2.51,3.9,4.261,4.261,0,0,1,1.338,6.776,4.25,4.25,0,0,0,0,5.8Z" transform="translate(53.654 7.154)" fill="#e79408"/>
      <path id="Shape-5" data-name="Shape" d="M72.5,37.459a4.339,4.339,0,0,1,1.143-2.9A4.261,4.261,0,0,0,72.3,27.783a4.333,4.333,0,0,1-2.51-3.9,3.865,3.865,0,0,1,.279-1.478,4.071,4.071,0,0,0,.279-1.478,4.291,4.291,0,0,0-4.127-4.266,4.258,4.258,0,0,1-4.1-4.1A4.291,4.291,0,0,0,57.86,8.431a4.071,4.071,0,0,0-1.478.279,3.865,3.865,0,0,1-1.478.279A4.333,4.333,0,0,1,51,6.479a4.266,4.266,0,0,0-6.776-1.338,4.336,4.336,0,0,1-1.835.94,4.126,4.126,0,0,1,.245.4,4.333,4.333,0,0,0,3.9,2.51,3.865,3.865,0,0,0,1.478-.279,4.071,4.071,0,0,1,1.478-.279,4.291,4.291,0,0,1,4.266,4.127,4.258,4.258,0,0,0,4.1,4.1,4.291,4.291,0,0,1,4.127,4.266,4.072,4.072,0,0,1-.279,1.478,3.864,3.864,0,0,0-.279,1.478,4.333,4.333,0,0,0,2.51,3.9,4.261,4.261,0,0,1,1.338,6.776,4.25,4.25,0,0,0,0,5.8,4.261,4.261,0,0,1-1.338,6.776,4.333,4.333,0,0,0-2.51,3.9,3.865,3.865,0,0,0,.279,1.478,4.071,4.071,0,0,1,.279,1.478,4.291,4.291,0,0,1-4.127,4.266,4.258,4.258,0,0,0-4.1,4.1,4.13,4.13,0,0,1-1.283,2.9,4.244,4.244,0,0,1-2.984,1.227,4.071,4.071,0,0,1-1.478-.279,3.865,3.865,0,0,0-1.478-.279,4.333,4.333,0,0,0-3.9,2.51,4.183,4.183,0,0,1-.257.4,4.319,4.319,0,0,1,1.846.943A4.261,4.261,0,0,0,51,68.439a4.333,4.333,0,0,1,3.9-2.51,3.865,3.865,0,0,1,1.478.279,4.071,4.071,0,0,0,1.478.279,4.244,4.244,0,0,0,2.984-1.227,4.13,4.13,0,0,0,1.283-2.9,4.258,4.258,0,0,1,4.1-4.1,4.291,4.291,0,0,0,4.127-4.266,4.071,4.071,0,0,0-.279-1.478,3.865,3.865,0,0,1-.279-1.478,4.333,4.333,0,0,1,2.51-3.9,4.261,4.261,0,0,0,1.338-6.776A4.339,4.339,0,0,1,72.5,37.459Z" transform="translate(75.792 7.156)" fill="#bc7c10"/>
      <circle id="Oval" cx="19.5" cy="19.5" r="19.5" transform="translate(97.212 25.211)" fill="#ffdc00"/>
      <path id="Shape-6" data-name="Shape" d="M44.683,9a19.519,19.519,0,0,0-4.183.46,19.519,19.519,0,0,1,0,38.118A19.519,19.519,0,1,0,44.683,9Z" transform="translate(72.433 16.096)" fill="#fec108"/>
      <path id="Shape-7" data-name="Shape" d="M57.308,59.515V92.977L46.154,81.823,35,92.977V25.97A4.244,4.244,0,0,0,37.984,27.2a4.071,4.071,0,0,0,1.478-.279,3.865,3.865,0,0,1,1.478-.279,4.333,4.333,0,0,1,3.9,2.51,4.261,4.261,0,0,0,6.776,1.338c.028-.028.084-.056.112-.084V65.092Z" transform="translate(62.596 46.447)" fill="#e79408"/>
      <path id="Shape-8" data-name="Shape" d="M63.308,25.97V65.092L52.154,53.938,41,65.092V30.4a4.225,4.225,0,0,1,5.688.084,4.261,4.261,0,0,0,6.776-1.338,4.333,4.333,0,0,1,3.9-2.51,3.865,3.865,0,0,1,1.478.279,4.071,4.071,0,0,0,1.478.279,4.244,4.244,0,0,0,2.984-1.227Z" transform="translate(73.327 46.447)" fill="#e79408"/>
      <path id="Shape-9" data-name="Shape" d="M51.382,27.2a4.071,4.071,0,0,1-1.478-.279,3.865,3.865,0,0,0-1.478-.279A4.291,4.291,0,0,0,46,27.426v29.3l8.365,8.365V25.97A4.244,4.244,0,0,1,51.382,27.2Z" transform="translate(82.27 46.447)" fill="#bc7c10"/>
    </g>
    <g id="outline">
      <path id="Shape-10" data-name="Shape" d="M153.366,0H13.942A13.959,13.959,0,0,0,0,13.942V114.327A13.959,13.959,0,0,0,13.942,128.27H97.6v13.942a2.788,2.788,0,0,0,4.76,1.971L111.539,135l9.182,9.182a2.788,2.788,0,0,0,4.76-1.971V128.27h27.885a13.959,13.959,0,0,0,13.942-13.942V13.942A13.959,13.959,0,0,0,153.366,0ZM90.1,54.556a1.483,1.483,0,0,1-.468-2.353,7.086,7.086,0,0,0,0-9.6,1.483,1.483,0,0,1,.471-2.356,7.094,7.094,0,0,0,3.67-8.867,1.483,1.483,0,0,1,1.333-2,7.091,7.091,0,0,0,6.787-6.787,1.483,1.483,0,0,1,2-1.333,7.108,7.108,0,0,0,8.867-3.672,1.478,1.478,0,0,1,2.351-.468,7.088,7.088,0,0,0,9.6,0,1.481,1.481,0,0,1,2.353.471,7.1,7.1,0,0,0,8.865,3.67,1.483,1.483,0,0,1,2,1.333,7.1,7.1,0,0,0,6.8,6.79,1.481,1.481,0,0,1,1.333,1.994,7.091,7.091,0,0,0,3.672,8.867,1.483,1.483,0,0,1,.468,2.353,7.086,7.086,0,0,0,0,9.6,1.483,1.483,0,0,1-.471,2.356,7.094,7.094,0,0,0-3.67,8.867,1.483,1.483,0,0,1-1.333,2,7.091,7.091,0,0,0-6.8,6.8,1.483,1.483,0,0,1-2,1.333,7.105,7.105,0,0,0-8.867,3.672,1.433,1.433,0,0,1-1.051.837,1.461,1.461,0,0,1-1.3-.365,7.091,7.091,0,0,0-9.6,0,1.464,1.464,0,0,1-1.3.365,1.439,1.439,0,0,1-1.054-.837,7.094,7.094,0,0,0-8.865-3.67,1.483,1.483,0,0,1-2-1.333,7.1,7.1,0,0,0-6.8-6.807,1.481,1.481,0,0,1-1.333-1.994A7.091,7.091,0,0,0,90.1,54.556Zm30.629,52.22-.82.82V81.384a1.475,1.475,0,0,1,1.007.393,6.971,6.971,0,0,0,4.768,1.885,7.357,7.357,0,0,0,1.411-.139,6.971,6.971,0,0,0,5.019-3.976,1.489,1.489,0,0,1,1.865-.77,7.052,7.052,0,0,0,2.646.4V107.6l-6.394-6.394a2.788,2.788,0,0,0-3.943,0Zm-.82,28.7-6.394-6.394a2.788,2.788,0,0,0-3.943,0l-6.394,6.394V79.17a7.044,7.044,0,0,0,2.646-.4,1.483,1.483,0,0,1,1.863.767,6.971,6.971,0,0,0,5.036,3.979,7.314,7.314,0,0,0,1.609.137v30.673a2.788,2.788,0,0,0,4.76,1.971l.817-.817Zm41.827-21.153a8.365,8.365,0,0,1-8.365,8.365H125.481V109.9l2.788-2.788,9.182,9.182a2.788,2.788,0,0,0,4.76-1.971V76.145a6.935,6.935,0,0,0,1.28-3.728,1.492,1.492,0,0,1,1.428-1.425,7.06,7.06,0,0,0,6.349-9.506,1.486,1.486,0,0,1,.77-1.86,7.06,7.06,0,0,0,2.231-11.215,1.489,1.489,0,0,1,0-2.016,7.058,7.058,0,0,0-2.231-11.212,1.483,1.483,0,0,1-.772-1.86,7.06,7.06,0,0,0-6.349-9.506,1.492,1.492,0,0,1-1.428-1.425,7.058,7.058,0,0,0-9.5-6.355,1.475,1.475,0,0,1-1.863-.767,7.06,7.06,0,0,0-11.215-2.231,1.486,1.486,0,0,1-2.013,0,7.058,7.058,0,0,0-11.212,2.231,1.481,1.481,0,0,1-1.865.77,7.058,7.058,0,0,0-9.5,6.355,1.492,1.492,0,0,1-1.428,1.425,7.06,7.06,0,0,0-6.349,9.506,1.486,1.486,0,0,1-.77,1.86A7.06,7.06,0,0,0,85.536,46.4a1.489,1.489,0,0,1,0,2.016,7.058,7.058,0,0,0,2.231,11.212,1.483,1.483,0,0,1,.772,1.86,7.06,7.06,0,0,0,6.349,9.506,1.492,1.492,0,0,1,1.428,1.425,6.935,6.935,0,0,0,1.28,3.725v46.548H13.942a8.365,8.365,0,0,1-8.365-8.365V13.942a8.365,8.365,0,0,1,8.365-8.365H153.366a8.365,8.365,0,0,1,8.365,8.365Z"/>
      <path id="Shape-11" data-name="Shape" d="M19.942,86.077a8.365,8.365,0,0,1-8.365-8.365V21.942a8.365,8.365,0,0,1,8.365-8.365H70.135a2.788,2.788,0,1,0,0-5.577H19.942A13.959,13.959,0,0,0,6,21.942V77.712A13.959,13.959,0,0,0,19.942,91.654H72.923a2.788,2.788,0,0,0,0-5.577Z" transform="translate(10.731 14.308)"/>
      <path id="Shape-12" data-name="Shape" d="M13.788,27.577H52.827a2.788,2.788,0,0,0,0-5.577H13.788a2.788,2.788,0,1,0,0,5.577Z" transform="translate(19.673 39.346)"/>
      <path id="Shape-13" data-name="Shape" d="M13.788,23.577H52.827a2.788,2.788,0,0,0,0-5.577H13.788a2.788,2.788,0,1,0,0,5.577Z" transform="translate(19.673 32.192)"/>
      <path id="Shape-14" data-name="Shape" d="M13.788,19.577H52.827a2.788,2.788,0,0,0,0-5.577H13.788a2.788,2.788,0,1,0,0,5.577Z" transform="translate(19.673 25.039)"/>
      <path id="Shape-15" data-name="Shape" d="M11.232,43.056a2.788,2.788,0,0,0,2.557,1.673A2.744,2.744,0,0,0,14.9,44.5a21.435,21.435,0,0,0,6.988-4.264,13.106,13.106,0,0,0,1.966-2.51,14.857,14.857,0,0,0,3.706,3.012,7.554,7.554,0,0,0,6.545.837,6.277,6.277,0,0,0,2.231-1.478,12.749,12.749,0,0,0,4.107,1.659l2.108.5A43.818,43.818,0,0,0,55.812,44.01a2.789,2.789,0,0,0-.4-5.563A38.5,38.5,0,0,1,43.855,36.83l-2.155-.51c-2.6-.6-3.271-1.648-3.547-2.387a2.788,2.788,0,0,0-5.393,1.174,1.408,1.408,0,0,1-.622,1.258,2.571,2.571,0,0,1-1.84-.474,11.433,11.433,0,0,1-4.8-6.068,2.788,2.788,0,0,0-5.4,1.138,7.214,7.214,0,0,1-2.158,5.318,16.544,16.544,0,0,1-5.27,3.106,2.788,2.788,0,0,0-1.442,3.672Z" transform="translate(19.672 50.079)"/>
      <path id="Shape-16" data-name="Shape" d="M57.308,53.616A22.308,22.308,0,1,0,35,31.308,22.308,22.308,0,0,0,57.308,53.616Zm0-39.039A16.731,16.731,0,1,1,40.577,31.308,16.731,16.731,0,0,1,57.308,14.577Z" transform="translate(62.596 16.096)"/>
    </g>
  </g>
</svg>
