<svg xmlns="http://www.w3.org/2000/svg" width="152" height="151.733" viewBox="0 0 152 151.733">
  <g id="pie-chart" transform="translate(0 -0.449)">
    <g id="Group_22" data-name="Group 22" transform="translate(2.227 2.675)">
      <path id="Path_32" data-name="Path 32" d="M90.22,109.9A50.975,50.975,0,1,0,39.247,58.921H90.22Z" transform="translate(-29.822 -7.948)" fill="#fee32c"/>
      <path id="Path_33" data-name="Path 33" d="M230.337,411.066H215.592a4.52,4.52,0,0,0-4.52,4.52v23.085h23.785V415.586A4.52,4.52,0,0,0,230.337,411.066Z" transform="translate(-150.637 -291.39)" fill="#fee32c"/>
      <path id="Path_34" data-name="Path 34" d="M223.124,411.071a4.517,4.517,0,0,0-4.518,4.518v23.085h-7.535V415.589a4.519,4.519,0,0,1,4.518-4.518Z" transform="translate(-150.636 -291.394)" fill="#d1bb22"/>
      <path id="Path_35" data-name="Path 35" d="M336.992,215.1H322.247a4.52,4.52,0,0,0-4.52,4.52V300.88h23.785V219.617a4.52,4.52,0,0,0-4.52-4.52Z" transform="translate(-225.628 -153.6)" fill="#f5bb58"/>
      <path id="Path_36" data-name="Path 36" d="M329.781,215.1a4.519,4.519,0,0,0-4.518,4.518v81.264h-7.532V219.618a4.517,4.517,0,0,1,4.518-4.518Z" transform="translate(-225.631 -153.602)" fill="#e79408"/>
      <path id="Path_37" data-name="Path 37" d="M443.648,328.609H428.9a4.52,4.52,0,0,0-4.52,4.52v47.564h23.785V333.129A4.52,4.52,0,0,0,443.648,328.609Z" transform="translate(-300.621 -233.413)" fill="#fee32c"/>
      <path id="Path_38" data-name="Path 38" d="M436.435,328.61a4.517,4.517,0,0,0-4.518,4.518v47.565h-7.535V333.128a4.519,4.519,0,0,1,4.521-4.518h7.532Z" transform="translate(-300.62 -233.413)" fill="#d1bb22"/>
      <path id="Path_39" data-name="Path 39" d="M58.473,262.371V211.4H7.5A50.975,50.975,0,0,0,58.473,262.371Z" transform="translate(-7.5 -150.997)" fill="#e79408"/>
    </g>
    <g id="Group_23" data-name="Group 23" transform="translate(0 0.449)">
      <path id="Path_40" data-name="Path 40" d="M225.063,403.566H210.317a6.754,6.754,0,0,0-6.746,6.746V433.4a2.226,2.226,0,0,0,2.227,2.227h23.785a2.226,2.226,0,0,0,2.227-2.227V410.312A6.754,6.754,0,0,0,225.063,403.566Zm2.293,27.6H208.024V410.313a2.3,2.3,0,0,1,2.293-2.293h14.745a2.3,2.3,0,0,1,2.293,2.293v20.858Z" transform="translate(-143.136 -283.891)"/>
      <path id="Path_41" data-name="Path 41" d="M137.474,62.131a53.61,53.61,0,0,0,.676-8.482,52.9,52.9,0,0,0-9.591-30.434l3.636-6.479h30.116a2.227,2.227,0,0,0,0-4.453h-31.42a2.226,2.226,0,0,0-1.942,1.137l-3.344,5.959a53.156,53.156,0,0,0-76.044-5.451,2.227,2.227,0,1,0,2.964,3.323,48.715,48.715,0,0,1,70.741,6.3l-9.093,16.2a2.226,2.226,0,1,0,3.883,2.179l8.059-14.361a48.455,48.455,0,0,1,7.581,26.08,49.12,49.12,0,0,1-.708,8.3h-11.82a6.753,6.753,0,0,0-6.745,6.745V92.48a48.125,48.125,0,0,1-27.247,9.87v-48.7a2.226,2.226,0,0,0-2.227-2.227h-48.7A48.16,48.16,0,0,1,46.738,23.383a2.227,2.227,0,0,0-3.488-2.768,52.632,52.632,0,0,0-11.5,33.034,2.226,2.226,0,0,0,2.227,2.227H82.723v48.75a2.226,2.226,0,0,0,2.227,2.227,52.578,52.578,0,0,0,29.474-8.9v52a2.226,2.226,0,0,0,2.227,2.227h23.782a2.226,2.226,0,0,0,2.227-2.227V133.238a2.227,2.227,0,0,0-4.453,0v14.49H118.877V68.692a2.294,2.294,0,0,1,2.292-2.292h14.746a2.294,2.294,0,0,1,2.292,2.292v55.64a2.227,2.227,0,0,0,4.453,0V68.692a6.755,6.755,0,0,0-5.186-6.561Z" transform="translate(-22.324 -0.449)"/>
      <path id="Path_42" data-name="Path 42" d="M438.374,321.109H423.628a6.754,6.754,0,0,0-6.746,6.746V375.42a2.226,2.226,0,0,0,2.227,2.227h23.785a2.226,2.226,0,0,0,2.227-2.227V327.855A6.754,6.754,0,0,0,438.374,321.109Zm2.293,52.084H421.335V327.855a2.3,2.3,0,0,1,2.293-2.293h14.745a2.3,2.3,0,0,1,2.293,2.293v45.338Z" transform="translate(-293.12 -225.913)"/>
      <path id="Path_43" data-name="Path 43" d="M53.2,203.894H2.227A2.226,2.226,0,0,0,0,206.121a53.293,53.293,0,0,0,35.37,50.126l-6.162,13.361H5.253a2.227,2.227,0,0,0,0,4.453h25.38a2.227,2.227,0,0,0,2.022-1.294l7.006-15.19a53.092,53.092,0,0,0,13.54,1.748,2.226,2.226,0,0,0,2.227-2.227V206.121a2.226,2.226,0,0,0-2.227-2.227Zm-2.227,50.927a48.562,48.562,0,0,1-9.416-1.358l2.714-5.884a2.227,2.227,0,0,0-4.044-1.865l-2.985,6.472A48.852,48.852,0,0,1,4.5,208.347h46.47Z" transform="translate(0 -143.496)"/>
      <path id="Path_44" data-name="Path 44" d="M12.422,397.407h18.5a2.227,2.227,0,0,0,0-4.453h-18.5a2.227,2.227,0,1,0,0,4.453Z" transform="translate(-7.168 -276.429)"/>
      <path id="Path_45" data-name="Path 45" d="M392.373,14.9h21.936a2.227,2.227,0,0,0,0-4.453H392.373a2.227,2.227,0,0,0,0,4.453Z" transform="translate(-274.321 -7.48)"/>
      <path id="Path_46" data-name="Path 46" d="M427.51,171.175a2.226,2.226,0,0,0,2.227,2.227h16.177a2.227,2.227,0,0,0,0-4.453H429.737A2.226,2.226,0,0,0,427.51,171.175Z" transform="translate(-300.593 -118.925)"/>
      <path id="Path_47" data-name="Path 47" d="M445.913,201.271H429.737a2.227,2.227,0,0,0,0,4.453h16.177a2.227,2.227,0,0,0,0-4.453Z" transform="translate(-300.593 -141.652)"/>
      <path id="Path_48" data-name="Path 48" d="M445.913,233.594H429.737a2.227,2.227,0,0,0,0,4.453h16.177a2.227,2.227,0,0,0,0-4.453Z" transform="translate(-300.593 -164.379)"/>
    </g>
  </g>
</svg>
