<svg xmlns="http://www.w3.org/2000/svg" width="43" height="43" viewBox="0 0 43 43">
  <g id="Group_32" data-name="Group 32" transform="translate(-1156 -108)">
    <path id="search" d="M16.437,10.045a6.156,6.156,0,0,0-1.876-4.516,6.158,6.158,0,0,0-4.516-1.877A6.155,6.155,0,0,0,5.529,5.529a6.155,6.155,0,0,0-1.876,4.516,6.159,6.159,0,0,0,1.876,4.516,6.155,6.155,0,0,0,4.516,1.876,6.153,6.153,0,0,0,4.516-1.876A6.163,6.163,0,0,0,16.437,10.045Zm7.305,11.871a1.851,1.851,0,0,1-1.826,1.826,1.7,1.7,0,0,1-1.284-.542l-4.894-4.88a9.77,9.77,0,0,1-5.693,1.769,9.867,9.867,0,0,1-3.9-.792A9.835,9.835,0,0,1,.792,13.947a10.009,10.009,0,0,1,0-7.8A9.835,9.835,0,0,1,6.143.792a10.009,10.009,0,0,1,7.8,0A9.835,9.835,0,0,1,19.3,6.143a9.855,9.855,0,0,1,.792,3.9,9.768,9.768,0,0,1-1.769,5.693l4.894,4.894A1.748,1.748,0,0,1,23.742,21.916Z" transform="translate(1165.629 117.629)"/>
    <g id="Group_3" data-name="Group 3" transform="translate(-545 -241)">
      <g id="Ellipse_1" data-name="Ellipse 1" transform="translate(1701 349)" fill="none" stroke="#e79408" stroke-width="3">
        <circle cx="21.5" cy="21.5" r="21.5" stroke="none"/>
        <circle cx="21.5" cy="21.5" r="20" fill="none"/>
      </g>
    </g>
  </g>
</svg>
