<svg xmlns="http://www.w3.org/2000/svg" width="43" height="43" viewBox="0 0 43 43">
  <g id="Group_30" data-name="Group 30" transform="translate(-1252 -108)">
    <g id="Group_2" data-name="Group 2" transform="translate(-449 -241)">
      <g id="Ellipse_1" data-name="Ellipse 1" transform="translate(1701 349)" fill="none" stroke="#e79408" stroke-width="3">
        <circle cx="21.5" cy="21.5" r="21.5" stroke="none"/>
        <circle cx="21.5" cy="21.5" r="20" fill="none"/>
      </g>
    </g>
    <path id="twitter" d="M10.619,25.723a14.07,14.07,0,0,0,14.16-14.161c0-.213,0-.427-.01-.64a10.139,10.139,0,0,0,2.485-2.584,10.087,10.087,0,0,1-2.862.787,5.007,5.007,0,0,0,2.193-2.757,9.9,9.9,0,0,1-3.165,1.2,4.976,4.976,0,0,0-8.607,3.406,5.5,5.5,0,0,0,.126,1.135,14.133,14.133,0,0,1-10.26-5.2A4.991,4.991,0,0,0,6.223,13.56a5.034,5.034,0,0,1-2.252-.621v.068A4.988,4.988,0,0,0,7.96,17.89a4.853,4.853,0,0,1-1.31.175,4.91,4.91,0,0,1-.934-.087,4.977,4.977,0,0,0,4.65,3.456,9.982,9.982,0,0,1-6.183,2.134A9.574,9.574,0,0,1,3,23.5a14.158,14.158,0,0,0,7.62,2.223" transform="translate(1258.372 113.638)"/>
  </g>
</svg>
